
<svg xmlns="http://www.w3.org/2000/svg" version="1.1" xmlns:xlink="http://www.w3.org/1999/xlink" preserveAspectRatio="none" x="0px" y="0px" width="1920px" height="1080px" viewBox="0 0 1920 1080">
<defs>
<g id="Layer0_0_FILL">
<path fill="#000000" stroke="none" d="
M 2124.95 1254.45
L 2124.95 -87.9 -161.2 -87.9 -161.2 1254.45 2124.95 1254.45
M 720 638.8
Q 720 539.4 790.3 469.1 860.6 398.8 960 398.8 1059.4 398.8 1129.7 469.1 1200 539.4 1200 638.8 1200 738.2 1129.7 808.5 1059.4 878.8 960 878.8 860.6 878.8 790.3 808.5 720 738.2 720 638.8 Z"/>
</g>

<path id="Layer0_0_1_STROKES" stroke="#000000" stroke-width="1" stroke-linejoin="round" stroke-linecap="round" fill="none" d="
M -161.2 -87.9
L 2124.95 -87.9 2124.95 1254.45 -161.2 1254.45 -161.2 -87.9 Z
M 1200 638.8
Q 1200 738.2 1129.7 808.5 1059.4 878.8 960 878.8 860.6 878.8 790.3 808.5 720 738.2 720 638.8 720 539.4 790.3 469.1 860.6 398.8 960 398.8 1059.4 398.8 1129.7 469.1 1200 539.4 1200 638.8 Z"/>
</defs>

<g id="Layer_1">
<g transform="matrix( 1, 0, 0, 1, 0,0) ">
<use xlink:href="#Layer0_0_FILL"/>

<use xlink:href="#Layer0_0_1_STROKES"/>
</g>
</g>
</svg>
