{
  "accessors": [
    {
      "bufferView": 2,
      "componentType": 5126,
      "count": 65532,
      "max": [
        276.25100708007812,
        339.60101318359375,
        377.25900268554688
      ],
      "min": [
        -324.843994140625,
        -213.95599365234375,
        -342.32199096679688
      ],
      "type": "VEC3"
    },
    {
      "bufferView": 2,
      "byteOffset": 786384,
      "componentType": 5126,
      "count": 65532,
      "max": [
        0.99884325265884399,
        0.99990099668502808,
        0.99985277652740479
      ],
      "min": [
        -0.99600833654403687,
        -0.99999874830245972,
        -0.97087746858596802
      ],
      "type": "VEC3"
    },
    {
      "bufferView": 3,
      "componentType": 5126,
      "count": 65532,
      "max": [
        0.99987339973449707,
        0.99790310859680176,
        0.97827386856079102,
        1
      ],
      "min": [
        -0.99991899728775024,
        -0.97899508476257324,
        -0.99999958276748657,
        1
      ],
      "type": "VEC4"
    },
    {
      "bufferView": 1,
      "componentType": 5126,
      "count": 65532,
      "max": [
        0.2491459995508194,
        0.24939000606536865
      ],
      "min": [
        0.00036621099570766091,
        0.00036621099570766091
      ],
      "type": "VEC2"
    },
    {
      "bufferView": 0,
      "componentType": 5125,
      "count": 376476,
      "max": [
        65531
      ],
      "min": [
        0
      ],
      "type": "SCALAR"
    },
    {
      "bufferView": 2,
      "byteOffset": 1572768,
      "componentType": 5126,
      "count": 65532,
      "max": [
        197.97700500488281,
        253.82499694824219,
        412.00100708007812
      ],
      "min": [
        -206.44099426269531,
        -205.36799621582031,
        -323.04800415039062
      ],
      "type": "VEC3"
    },
    {
      "bufferView": 2,
      "byteOffset": 2359152,
      "componentType": 5126,
      "count": 65532,
      "max": [
        0.99223077297210693,
        0.90302824974060059,
        0.9999811053276062
      ],
      "min": [
        -0.96606677770614624,
        -0.99953275918960571,
        -0.98017913103103638
      ],
      "type": "VEC3"
    },
    {
      "bufferView": 3,
      "byteOffset": 1048512,
      "componentType": 5126,
      "count": 65532,
      "max": [
        0.77495354413986206,
        0.99973446130752563,
        0.99998277425765991,
        1
      ],
      "min": [
        -0.99808317422866821,
        -0.92846029996871948,
        -0.88121324777603149,
        1
      ],
      "type": "VEC4"
    },
    {
      "bufferView": 1,
      "byteOffset": 524256,
      "componentType": 5126,
      "count": 65532,
      "max": [
        0.24939000606536865,
        0.43103000521659851
      ],
      "min": [
        0.00036621099570766091,
        0.054321300238370895
      ],
      "type": "VEC2"
    },
    {
      "bufferView": 0,
      "byteOffset": 1505904,
      "componentType": 5125,
      "count": 356634,
      "max": [
        65531
      ],
      "min": [
        0
      ],
      "type": "SCALAR"
    },
    {
      "bufferView": 2,
      "byteOffset": 3145536,
      "componentType": 5126,
      "count": 65532,
      "max": [
        313.44900512695312,
        326.7919921875,
        412.00100708007812
      ],
      "min": [
        -331.04998779296875,
        -222.97099304199219,
        -384.7550048828125
      ],
      "type": "VEC3"
    },
    {
      "bufferView": 2,
      "byteOffset": 3931920,
      "componentType": 5126,
      "count": 65532,
      "max": [
        0.99954724311828613,
        0.99181437492370605,
        0.99999433755874634
      ],
      "min": [
        -0.99496644735336304,
        -0.99994510412216187,
        -0.99006086587905884
      ],
      "type": "VEC3"
    },
    {
      "bufferView": 3,
      "byteOffset": 2097024,
      "componentType": 5126,
      "count": 65532,
      "max": [
        0.93896842002868652,
        0.99963158369064331,
        0.99999994039535522,
        1
      ],
      "min": [
        -0.99972236156463623,
        -0.98615670204162598,
        -0.99995064735412598,
        1
      ],
      "type": "VEC4"
    },
    {
      "bufferView": 1,
      "byteOffset": 1048512,
      "componentType": 5126,
      "count": 65532,
      "max": [
        0.24939000606536865,
        0.83736199140548706
      ],
      "min": [
        0.00036621099570766091,
        0.25036600232124329
      ],
      "type": "VEC2"
    },
    {
      "bufferView": 0,
      "byteOffset": 2932440,
      "componentType": 5125,
      "count": 326784,
      "max": [
        65531
      ],
      "min": [
        0
      ],
      "type": "SCALAR"
    },
    {
      "bufferView": 2,
      "byteOffset": 4718304,
      "componentType": 5126,
      "count": 65532,
      "max": [
        293.19900512695312,
        296.97299194335938,
        380.12701416015625
      ],
      "min": [
        -307.38299560546875,
        -220.47200012207031,
        -256.875
      ],
      "type": "VEC3"
    },
    {
      "bufferView": 2,
      "byteOffset": 5504688,
      "componentType": 5126,
      "count": 65532,
      "max": [
        0.99998533725738525,
        0.96925878524780273,
        0.99988758563995361
      ],
      "min": [
        -0.9999997615814209,
        -0.99993747472763062,
        -0.97585189342498779
      ],
      "type": "VEC3"
    },
    {
      "bufferView": 3,
      "byteOffset": 3145536,
      "componentType": 5126,
      "count": 65532,
      "max": [
        0.96282237768173218,
        0.99047571420669556,
        0.99999487400054932,
        1
      ],
      "min": [
        -0.99957293272018433,
        -0.97628462314605713,
        -0.97855627536773682,
        1
      ],
      "type": "VEC4"
    },
    {
      "bufferView": 1,
      "byteOffset": 1572768,
      "componentType": 5126,
      "count": 65532,
      "max": [
        0.24841299653053284,
        0.9991459846496582
      ],
      "min": [
        0.00036621099570766091,
        0.7503659725189209
      ],
      "type": "VEC2"
    },
    {
      "bufferView": 0,
      "byteOffset": 4239576,
      "componentType": 5125,
      "count": 363555,
      "max": [
        65531
      ],
      "min": [
        0
      ],
      "type": "SCALAR"
    },
    {
      "bufferView": 2,
      "byteOffset": 6291072,
      "componentType": 5126,
      "count": 65532,
      "max": [
        326.2650146484375,
        328.49899291992188,
        387.94000244140625
      ],
      "min": [
        -329.74398803710938,
        -211.72300720214844,
        -363.66299438476562
      ],
      "type": "VEC3"
    },
    {
      "bufferView": 2,
      "byteOffset": 7077456,
      "componentType": 5126,
      "count": 65532,
      "max": [
        0.99999874830245972,
        0.99932277202606201,
        0.99992662668228149
      ],
      "min": [
        -0.99872052669525146,
        -0.9999840259552002,
        -0.99794501066207886
      ],
      "type": "VEC3"
    },
    {
      "bufferView": 3,
      "byteOffset": 4194048,
      "componentType": 5126,
      "count": 65532,
      "max": [
        0.98015743494033813,
        0.99638551473617554,
        0.99999892711639404,
        1
      ],
      "min": [
        -0.99943721294403076,
        -0.97435921430587769,
        -0.99999964237213135,
        1
      ],
      "type": "VEC4"
    },
    {
      "bufferView": 1,
      "byteOffset": 2097024,
      "componentType": 5126,
      "count": 65532,
      "max": [
        0.49939000606536865,
        0.99939000606536865
      ],
      "min": [
        0.0054931598715484142,
        0.00036621099570766091
      ],
      "type": "VEC2"
    },
    {
      "bufferView": 0,
      "byteOffset": 5693796,
      "componentType": 5125,
      "count": 354543,
      "max": [
        65531
      ],
      "min": [
        0
      ],
      "type": "SCALAR"
    },
    {
      "bufferView": 2,
      "byteOffset": 7863840,
      "componentType": 5126,
      "count": 65532,
      "max": [
        315.40499877929688,
        308.57998657226562,
        407.15200805664062
      ],
      "min": [
        -349.17300415039062,
        -222.97900390625,
        -376.14801025390625
      ],
      "type": "VEC3"
    },
    {
      "bufferView": 2,
      "byteOffset": 8650224,
      "componentType": 5126,
      "count": 65532,
      "max": [
        0.99998748302459717,
        0.99997973442077637,
        0.99959009885787964
      ],
      "min": [
        -0.99973452091217041,
        -0.99999874830245972,
        -0.99930953979492188
      ],
      "type": "VEC3"
    },
    {
      "bufferView": 3,
      "byteOffset": 5242560,
      "componentType": 5126,
      "count": 65532,
      "max": [
        0.9846351146697998,
        0.99904835224151611,
        0.99999904632568359,
        1
      ],
      "min": [
        -0.99964964389801025,
        -0.9962419867515564,
        -0.9999997615814209,
        1
      ],
      "type": "VEC4"
    },
    {
      "bufferView": 1,
      "byteOffset": 2621280,
      "componentType": 5126,
      "count": 65532,
      "max": [
        0.49939000606536865,
        0.74939000606536865
      ],
      "min": [
        0.25036600232124329,
        0.25036600232124329
      ],
      "type": "VEC2"
    },
    {
      "bufferView": 0,
      "byteOffset": 7111968,
      "componentType": 5125,
      "count": 354090,
      "max": [
        65531
      ],
      "min": [
        0
      ],
      "type": "SCALAR"
    },
    {
      "bufferView": 2,
      "byteOffset": 9436608,
      "componentType": 5126,
      "count": 65532,
      "max": [
        313.364013671875,
        329.14801025390625,
        401.60000610351562
      ],
      "min": [
        -349.43099975585938,
        -222.33599853515625,
        -367.95401000976562
      ],
      "type": "VEC3"
    },
    {
      "bufferView": 2,
      "byteOffset": 10222992,
      "componentType": 5126,
      "count": 65532,
      "max": [
        0.99996465444564819,
        0.99999499320983887,
        0.99993735551834106
      ],
      "min": [
        -0.99989199638366699,
        -0.99999874830245972,
        -0.99982762336730957
      ],
      "type": "VEC3"
    },
    {
      "bufferView": 3,
      "byteOffset": 6291072,
      "componentType": 5126,
      "count": 65532,
      "max": [
        0.96615433692932129,
        0.99836832284927368,
        0.99999988079071045,
        1
      ],
      "min": [
        -0.99969589710235596,
        -0.99498164653778076,
        -0.9999968409538269,
        1
      ],
      "type": "VEC4"
    },
    {
      "bufferView": 1,
      "byteOffset": 3145536,
      "componentType": 5126,
      "count": 65532,
      "max": [
        0.6822509765625,
        0.99939000606536865
      ],
      "min": [
        0.25036600232124329,
        0.00036621099570766091
      ],
      "type": "VEC2"
    },
    {
      "bufferView": 0,
      "byteOffset": 8528328,
      "componentType": 5125,
      "count": 338727,
      "max": [
        65531
      ],
      "min": [
        0
      ],
      "type": "SCALAR"
    },
    {
      "bufferView": 2,
      "byteOffset": 11009376,
      "componentType": 5126,
      "count": 65532,
      "max": [
        317.22500610351562,
        329.14801025390625,
        409.15200805664062
      ],
      "min": [
        -346.94900512695312,
        -222.62800598144531,
        -388.82101440429688
      ],
      "type": "VEC3"
    },
    {
      "bufferView": 2,
      "byteOffset": 11795760,
      "componentType": 5126,
      "count": 65532,
      "max": [
        0.99980449676513672,
        0.99944174289703369,
        0.99999433755874634
      ],
      "min": [
        -0.99997353553771973,
        -0.99999886751174927,
        -0.99982762336730957
      ],
      "type": "VEC3"
    },
    {
      "bufferView": 3,
      "byteOffset": 7339584,
      "componentType": 5126,
      "count": 65532,
      "max": [
        0.99687910079956055,
        0.99943900108337402,
        1,
        1
      ],
      "min": [
        -0.99986112117767334,
        -0.99920284748077393,
        -0.99999237060546875,
        1
      ],
      "type": "VEC4"
    },
    {
      "bufferView": 1,
      "byteOffset": 3669792,
      "componentType": 5126,
      "count": 65532,
      "max": [
        0.9322509765625,
        0.93078601360321045
      ],
      "min": [
        0.5003659725189209,
        0.00036621099570766091
      ],
      "type": "VEC2"
    },
    {
      "bufferView": 0,
      "byteOffset": 9883236,
      "componentType": 5125,
      "count": 275184,
      "max": [
        65531
      ],
      "min": [
        0
      ],
      "type": "SCALAR"
    },
    {
      "bufferView": 2,
      "byteOffset": 12582144,
      "componentType": 5126,
      "count": 29047,
      "max": [
        292.41500854492188,
        334.44699096679688,
        340.23098754882812
      ],
      "min": [
        -307.22500610351562,
        -127.23100280761719,
        -373.6669921875
      ],
      "type": "VEC3"
    },
    {
      "bufferView": 2,
      "byteOffset": 12930708,
      "componentType": 5126,
      "count": 29047,
      "max": [
        0.99999111890792847,
        0.99986350536346436,
        0.99205821752548218
      ],
      "min": [
        -0.90493673086166382,
        -0.9999726414680481,
        -0.99300521612167358
      ],
      "type": "VEC3"
    },
    {
      "bufferView": 3,
      "byteOffset": 8388096,
      "componentType": 5126,
      "count": 29047,
      "max": [
        0.9881739616394043,
        0.9782833456993103,
        1,
        1
      ],
      "min": [
        -0.99949496984481812,
        -0.94797170162200928,
        -0.85956472158432007,
        1
      ],
      "type": "VEC4"
    },
    {
      "bufferView": 1,
      "byteOffset": 4194048,
      "componentType": 5126,
      "count": 29047,
      "max": [
        0.99255400896072388,
        0.9974370002746582
      ],
      "min": [
        0.7503659725189209,
        0.14343300461769104
      ],
      "type": "VEC2"
    },
    {
      "bufferView": 0,
      "byteOffset": 10983972,
      "componentType": 5125,
      "count": 160581,
      "max": [
        29046
      ],
      "min": [
        0
      ],
      "type": "SCALAR"
    }
  ],
  "asset": {
    "extras": {
      "author": "3DSOM (https://sketchfab.com/3dsom)",
      "license": "CC-BY-NC-4.0 (http://creativecommons.org/licenses/by-nc/4.0/)",
      "source": "https://sketchfab.com/models/3f453ad00d51453caf45e97e48ccfb9c",
      "title": "Head Scan"
    },
    "generator": "Sketchfab-3.18.7",
    "version": "2.0"
  },
  "bufferViews": [
    {
      "buffer": 0,
      "byteLength": 11626296,
      "byteOffset": 0,
      "name": "floatBufferViews",
      "target": 34963
    },
    {
      "buffer": 0,
      "byteLength": 4426424,
      "byteOffset": 11626296,
      "byteStride": 8,
      "name": "floatBufferViews",
      "target": 34962
    },
    {
      "buffer": 0,
      "byteLength": 13279272,
      "byteOffset": 16052720,
      "byteStride": 12,
      "name": "floatBufferViews",
      "target": 34962
    },
    {
      "buffer": 0,
      "byteLength": 8852848,
      "byteOffset": 29331992,
      "byteStride": 16,
      "name": "floatBufferViews",
      "target": 34962
    }
  ],
  "buffers": [
    {
      "byteLength": 38184840,
      "uri": "scene.bin"
    }
  ],
  "images": [
    {
      "uri": "textures/mat_0_baseColor.jpeg"
    }
  ],
  "materials": [
    {
      "doubleSided": false,
      "emissiveFactor": [
        0,
        0,
        0
      ],
      "name": "mat_0",
      "pbrMetallicRoughness": {
        "baseColorFactor": [
          1,
          1,
          1,
          1
        ],
        "baseColorTexture": {
          "index": 0,
          "texCoord": 0
        },
        "metallicFactor": 0,
        "roughnessFactor": 0.59999999999999998
      }
    }
  ],
  "meshes": [
    {
      "primitives": [
        {
          "attributes": {
            "NORMAL": 1,
            "POSITION": 0,
            "TANGENT": 2,
            "TEXCOORD_0": 3
          },
          "indices": 4,
          "material": 0,
          "mode": 4
        }
      ]
    },
    {
      "primitives": [
        {
          "attributes": {
            "NORMAL": 6,
            "POSITION": 5,
            "TANGENT": 7,
            "TEXCOORD_0": 8
          },
          "indices": 9,
          "material": 0,
          "mode": 4
        }
      ]
    },
    {
      "primitives": [
        {
          "attributes": {
            "NORMAL": 11,
            "POSITION": 10,
            "TANGENT": 12,
            "TEXCOORD_0": 13
          },
          "indices": 14,
          "material": 0,
          "mode": 4
        }
      ]
    },
    {
      "primitives": [
        {
          "attributes": {
            "NORMAL": 16,
            "POSITION": 15,
            "TANGENT": 17,
            "TEXCOORD_0": 18
          },
          "indices": 19,
          "material": 0,
          "mode": 4
        }
      ]
    },
    {
      "primitives": [
        {
          "attributes": {
            "NORMAL": 21,
            "POSITION": 20,
            "TANGENT": 22,
            "TEXCOORD_0": 23
          },
          "indices": 24,
          "material": 0,
          "mode": 4
        }
      ]
    },
    {
      "primitives": [
        {
          "attributes": {
            "NORMAL": 26,
            "POSITION": 25,
            "TANGENT": 27,
            "TEXCOORD_0": 28
          },
          "indices": 29,
          "material": 0,
          "mode": 4
        }
      ]
    },
    {
      "primitives": [
        {
          "attributes": {
            "NORMAL": 31,
            "POSITION": 30,
            "TANGENT": 32,
            "TEXCOORD_0": 33
          },
          "indices": 34,
          "material": 0,
          "mode": 4
        }
      ]
    },
    {
      "primitives": [
        {
          "attributes": {
            "NORMAL": 36,
            "POSITION": 35,
            "TANGENT": 37,
            "TEXCOORD_0": 38
          },
          "indices": 39,
          "material": 0,
          "mode": 4
        }
      ]
    },
    {
      "primitives": [
        {
          "attributes": {
            "NORMAL": 41,
            "POSITION": 40,
            "TANGENT": 42,
            "TEXCOORD_0": 43
          },
          "indices": 44,
          "material": 0,
          "mode": 4
        }
      ]
    }
  ],
  "nodes": [
    {
      "children": [
        1
      ],
      "name": "RootNode (gltf orientation matrix)",
      "rotation": [
        -0.70710678118654746,
        -0,
        -0,
        0.70710678118654757
      ]
    },
    {
      "children": [
        2
      ],
      "name": "RootNode (model correction matrix)"
    },
    {
      "children": [
        3,
        4,
        5,
        6,
        7,
        8,
        9,
        10,
        11
      ],
      "name": "model.obj.cleaner.gles"
    },
    {
      "mesh": 0,
      "name": ""
    },
    {
      "mesh": 1,
      "name": ""
    },
    {
      "mesh": 2,
      "name": ""
    },
    {
      "mesh": 3,
      "name": ""
    },
    {
      "mesh": 4,
      "name": ""
    },
    {
      "mesh": 5,
      "name": ""
    },
    {
      "mesh": 6,
      "name": ""
    },
    {
      "mesh": 7,
      "name": ""
    },
    {
      "mesh": 8,
      "name": ""
    }
  ],
  "samplers": [
    {
      "magFilter": 9729,
      "minFilter": 9987,
      "wrapS": 10497,
      "wrapT": 10497
    }
  ],
  "scene": 0,
  "scenes": [
    {
      "name": "OSG_Scene",
      "nodes": [
        0
      ]
    }
  ],
  "textures": [
    {
      "sampler": 0,
      "source": 0
    }
  ]
}

