
<svg xmlns="http://www.w3.org/2000/svg" version="1.1" xmlns:xlink="http://www.w3.org/1999/xlink" preserveAspectRatio="none" x="0px" y="0px" width="7680px" height="4320px" viewBox="0 0 7680 4320">
<defs>
<g id="Layer0_0_FILL">
<path fill="#000000" stroke="none" d="
M 0 0
L 0 4320 7680 4320 7680 0 0 0
M 3600.7 2635.05
Q 3600.7 2529 3675.7 2453.95 3750.75 2378.95 3856.8 2378.95 3962.85 2378.95 4037.85 2453.95 4112.9 2529 4112.9 2635.05 4112.9 2741.1 4037.85 2816.1 3962.85 2891.15 3856.8 2891.15 3750.75 2891.15 3675.7 2816.1 3600.7 2741.1 3600.7 2635.05
M 3679.8 2458.05
Q 3606.5 2531.35 3606.5 2635 3606.5 2738.65 3679.8 2811.95 3753.1 2885.25 3856.75 2885.25 3960.4 2885.25 4033.7 2811.95 4107 2738.65 4107 2635 4107 2531.35 4033.7 2458.05 3960.4 2384.75 3856.75 2384.75 3753.1 2384.75 3679.8 2458.05
M 3687.05 2465.3
Q 3757.35 2395 3856.75 2395 3956.15 2395 4026.45 2465.3 4096.75 2535.6 4096.75 2635 4096.75 2734.4 4026.45 2804.7 3956.15 2875 3856.75 2875 3757.35 2875 3687.05 2804.7 3616.75 2734.4 3616.75 2635 3616.75 2535.6 3687.05 2465.3 Z"/>
</g>

<path id="Layer0_0_1_STROKES" stroke="#000000" stroke-width="1" stroke-linejoin="round" stroke-linecap="round" fill="none" d="
M 0 0
L 7680 0 7680 4320 0 4320 0 0 Z"/>
</defs>

<g id="Layer_1">
<g transform="matrix( 1, 0, 0, 1, 0,0) ">
<use xlink:href="#Layer0_0_FILL"/>

<use xlink:href="#Layer0_0_1_STROKES"/>
</g>
</g>
</svg>
